<svg width="25" height="24" viewBox="0 0 25 24" fill="none" xmlns="http://www.w3.org/2000/svg">
<path fill-rule="evenodd" clip-rule="evenodd" d="M22.1544 6.91262C21.9095 5.76812 21.0396 4.92374 19.9922 4.79778C17.5121 4.49988 15.0019 4.49832 12.5032 4.49988C10.0041 4.49832 7.49344 4.49988 5.01334 4.79778C3.96663 4.92374 3.09726 5.76812 2.85241 6.91262C2.50392 8.54252 2.5 10.3217 2.5 11.9998C2.5 13.6779 2.5 15.4569 2.84849 17.0865C3.09293 18.2308 3.9625 19.0752 5.00983 19.2014C7.48973 19.4995 10.0002 19.5011 12.4993 19.4995C14.9988 19.5011 17.5086 19.4995 19.9883 19.2014C21.035 19.0754 21.9052 18.231 22.1501 17.0865C22.4988 15.4566 22.5 13.6777 22.5 11.9998C22.5 10.3217 22.5029 8.54252 22.1544 6.91262ZM10.5 15.5001C10.5 13.1587 10.5 10.8418 10.5 8.50014C12.5002 9.67064 14.4871 10.8333 16.5 12.011C14.4934 13.1782 12.5055 14.3338 10.5 15.5001Z" fill="white"/>
</svg>
