<svg width="25" height="24" viewBox="0 0 25 24" fill="none" xmlns="http://www.w3.org/2000/svg">
<path d="M20.4052 4.2168C20.4724 4.22384 20.5473 4.23562 20.6239 4.25391C20.7757 4.29015 20.9555 4.35615 21.1054 4.47754C21.3643 4.68775 21.4297 4.96953 21.4569 5.12891C21.4839 5.28695 21.5169 5.63609 21.4901 5.91895C21.2117 8.84386 20.0112 15.922 19.4013 19.1826C19.1386 20.5859 18.5898 21.2115 17.9189 21.2734C17.3106 21.3293 16.7858 21.1254 16.2978 20.8389C16.0546 20.696 15.8147 20.5289 15.5761 20.3594C15.335 20.1881 15.0955 20.014 14.8417 19.8477C14.0295 19.3153 13.3937 18.8829 12.7655 18.4551C12.1373 18.0272 11.516 17.604 10.7314 17.0869C10.2641 16.779 9.95503 16.4843 9.79678 16.1816C9.62928 15.8609 9.64199 15.5521 9.76748 15.2656C9.88566 14.9962 10.1032 14.7474 10.3329 14.5137C10.4496 14.395 10.5766 14.2733 10.703 14.1514C10.8307 14.0282 10.9599 13.9033 11.0858 13.7725C11.2267 13.6262 12.4848 12.4712 13.6981 11.3252C14.3092 10.748 14.9131 10.169 15.369 9.71094C15.5973 9.48164 15.7863 9.28456 15.9198 9.13477C15.9866 9.05981 16.0368 8.99966 16.0702 8.95508C16.0817 8.93973 16.0897 8.92694 16.0956 8.91797C16.0959 8.90644 16.0965 8.89284 16.0946 8.87988C16.0926 8.86588 16.0893 8.85546 16.0868 8.84961C16.0845 8.84446 16.0837 8.8459 16.0878 8.84961V8.84863C16.0945 8.85442 16.0957 8.8489 16.0644 8.84863C16.0319 8.84836 15.9933 8.85566 15.9413 8.86719C15.9585 8.86207 15.9599 8.85852 15.9306 8.87402C15.9066 8.88673 15.8716 8.90606 15.8251 8.93359C15.7323 8.98857 15.6007 9.07003 15.4296 9.17871C15.0874 9.39608 14.5931 9.71897 13.9462 10.1465C12.6529 11.0012 10.7523 12.2731 8.246 13.9648L8.24698 13.9658C7.48918 14.4862 6.77038 14.7625 6.10147 14.748C5.74241 14.7401 5.23858 14.6405 4.72159 14.5107C4.19862 14.3795 3.64122 14.2125 3.16788 14.0586C2.61088 13.8775 2.0625 13.7249 1.67862 13.5391C1.48371 13.4446 1.3021 13.3281 1.17569 13.1729C1.04157 13.0078 0.978159 12.8079 1.00674 12.5791C1.04056 12.3114 1.23265 12.0896 1.4794 11.9062C1.73272 11.7181 2.08758 11.5372 2.53213 11.3604C7.89637 9.02326 11.4767 7.48198 13.2694 6.73633C15.8248 5.67345 17.3741 5.04668 18.372 4.68457C19.3652 4.32414 19.8382 4.21504 20.2294 4.20801L20.4052 4.2168Z" fill="white"/>
</svg>
