<svg width="25" height="24" viewBox="0 0 25 24" fill="none" xmlns="http://www.w3.org/2000/svg">
<path fill-rule="evenodd" clip-rule="evenodd" d="M12.4064 3.49992C8.90272 3.50026 6.47498 3.51191 5.22881 4.72884C4.01195 5.97473 4.00029 8.51647 4.00029 11.9061C7.76414 11.7926 9.48533 11.6983 10.8581 10.3578C12.1985 8.98507 12.2928 7.26392 12.4064 3.49992ZM5.22852 19.2713C4.01166 18.0254 4 15.4837 4 12.094C7.76385 12.2076 9.48504 12.3018 10.8578 13.6423C12.1982 15.0151 12.2925 16.7362 12.4061 20.4999C8.90243 20.4999 6.47469 20.4886 5.22852 19.2713ZM12.594 20.4999C12.7076 16.7362 12.8019 15.0151 14.1423 13.6423C15.5151 12.3018 17.2363 12.2076 21.0001 12.094C20.9998 15.4837 20.9881 18.0254 19.7713 19.2713C18.5251 20.4886 16.0977 20.4999 12.594 20.4999ZM12.594 3.49988C12.7076 7.26387 12.8019 8.98503 14.1423 10.3578C15.5151 11.6983 17.2363 11.7925 21.0001 11.9061C20.9998 8.51643 20.9881 5.97468 19.7713 4.72879C18.5251 3.51187 16.0977 3.50021 12.594 3.49988Z" fill="white"/>
</svg>
