<svg width="25" height="24" viewBox="0 0 25 24" fill="none" xmlns="http://www.w3.org/2000/svg">
<path d="M12.8955 2.5C17.1784 2.5 19.3281 2.50003 20.666 3.83398C21.9999 5.16402 22 7.30871 22 11.5664V12.3955C22 16.6943 22 18.8437 20.666 20.1816C19.3514 21.5002 17.2405 21.5003 13.0801 21.5H12.1045C7.82169 21.5 5.6719 21.4999 4.33398 20.166C3.00003 18.836 2.99999 16.6913 3 12.4336V11.6035C3 7.32102 3.00018 5.17186 4.33398 3.83398C5.66401 2.50001 7.80861 2.49999 12.0664 2.5H12.8955ZM6.20605 8.27051C6.30897 13.2183 8.77915 16.1874 13.1094 16.1875L13.3555 16.1953V13.3691C14.1193 13.4649 14.8379 13.7844 15.4209 14.2871C16.004 14.7899 16.4258 15.4537 16.6328 16.1953H18.8887C18.6568 15.3432 18.2473 14.5494 17.6865 13.8672C17.1257 13.1849 16.426 12.6297 15.6348 12.2373C16.3445 11.8041 16.9577 11.229 17.4346 10.5479C17.9113 9.86679 18.2421 9.09427 18.4062 8.2793H16.3633C15.9199 9.84647 14.6061 11.2715 13.3555 11.4062V8.2793H11.3125V13.749C10.0459 13.4164 8.44722 11.8962 8.37598 8.27051H6.20605Z" fill="white"/>
</svg>
