<svg width="25" height="24" viewBox="0 0 25 24" fill="none" xmlns="http://www.w3.org/2000/svg">
<path d="M16.4785 3C16.7216 5.31186 18.5858 7.11741 20.9043 7.28711V10.2822L20.6816 10.2988C20.6078 10.3026 20.5339 10.3044 20.46 10.3047C18.8389 10.3049 17.3264 9.48793 16.4385 8.13184V15.5312C16.4385 18.5515 13.9902 20.9998 10.9697 21C7.94908 21 5.5 18.5515 5.5 15.5312C5.50005 12.5111 7.94911 10.0625 10.9697 10.0625C11.0838 10.0625 11.1955 10.073 11.3076 10.0801V12.7744C11.1955 12.761 11.0851 12.7413 10.9697 12.7412C9.42804 12.7412 8.17773 13.9907 8.17773 15.5322C8.17787 17.0736 9.42813 18.3232 10.9697 18.3232C12.5116 18.323 13.873 17.108 13.873 15.5664L13.8994 3H16.4785Z" fill="white"/>
</svg>
